<?xml version="1.0" encoding="utf-8"?>
<!-- Generator: Adobe Illustrator 27.0.0, SVG Export Plug-In . SVG Version: 6.00 Build 0)  -->
<svg version="1.1" id="Layer_1" xmlns="http://www.w3.org/2000/svg" xmlns:xlink="http://www.w3.org/1999/xlink" x="0px" y="0px"
	 viewBox="0 0 800 800" style="enable-background:new 0 0 800 800;" xml:space="preserve">
<style type="text/css">
	.st0{fill:none;stroke:#5B6C7D;stroke-width:30;stroke-miterlimit:10;}
	.st1{fill:#5B6C7D;}
</style>
<g>
	<path class="st0" d="M664,655.1H136c-61.7,0-112.2-50.5-112.2-112.2V257.2C23.8,195.5,74.3,145,136,145h528
		c61.7,0,112.2,50.5,112.2,112.2v285.7C776.2,604.6,725.7,655.1,664,655.1z"/>
	<path class="st1" d="M425.3,292.9h-99.4c-13.8,0-25.2-11.3-25.2-25.2V261c0-13.8,11.3-25.2,25.2-25.2h99.4
		c13.8,0,25.2,11.3,25.2,25.2v6.8C450.4,281.6,439.1,292.9,425.3,292.9z"/>
	<path class="st1" d="M698.5,292.9H527.4c-13.8,0-25.2-11.3-25.2-25.2V261c0-13.8,11.3-25.2,25.2-25.2h171.1
		c13.8,0,25.2,11.3,25.2,25.2v6.8C723.6,281.6,712.3,292.9,698.5,292.9z"/>
	<path class="st1" d="M703.8,428.6H364.1c-13.8,0-25.2-11.3-25.2-25.2v-6.8c0-13.8,11.3-25.2,25.2-25.2h339.7
		c13.8,0,25.2,11.3,25.2,25.2v6.8C729,417.2,717.7,428.6,703.8,428.6z"/>
	<path class="st1" d="M703.8,566.7H557.9c-13.8,0-25.2-11.3-25.2-25.2v-6.8c0-13.8,11.3-25.2,25.2-25.2h145.9
		c13.8,0,25.2,11.3,25.2,25.2v6.8C729,555.4,717.7,566.7,703.8,566.7z"/>
	<path class="st1" d="M434.8,425.2v131c0,13.8,11.3,25.2,25.2,25.2h6.8c13.8,0,25.2-11.3,25.2-25.2v-131c0-13.8-11.3-25.2-25.2-25.2
		H460C446.1,400,434.8,411.3,434.8,425.2z"/>
	<path class="st1" d="M121.4,571.7h224.1c13.8,0,25.2-11.3,25.2-25.2v-6.8c0-13.8-11.3-25.2-25.2-25.2H121.4
		c-13.8,0-25.2,11.3-25.2,25.2v6.8C96.2,560.4,107.6,571.7,121.4,571.7z"/>
	<g>
		<path class="st1" d="M259.3,448.2l-11.6-30.6h-99.1L137,448.9c-4.5,12.2-8.4,20.4-11.6,24.7c-3.2,4.3-8.5,6.4-15.8,6.4
			c-6.2,0-11.7-2.3-16.5-6.8s-7.2-9.7-7.2-15.5c0-3.3,0.6-6.8,1.7-10.3s2.9-8.5,5.5-14.8l62.4-158.3c1.8-4.5,3.9-10,6.4-16.4
			c2.5-6.4,5.2-11.7,8-15.9s6.5-7.6,11.1-10.2c4.6-2.6,10.3-3.9,17-3.9c6.9,0,12.6,1.3,17.2,3.9c4.6,2.6,8.3,6,11.1,10.1
			s5.2,8.5,7.2,13.2c1.9,4.7,4.4,11,7.4,18.9l63.7,157.3c5,12,7.5,20.7,7.5,26.1c0,5.7-2.4,10.8-7.1,15.6c-4.7,4.7-10.4,7.1-17,7.1
			c-3.9,0-7.2-0.7-10-2.1s-5.1-3.3-7-5.7c-1.9-2.4-3.9-6-6.1-11C262.7,456.3,260.8,452,259.3,448.2z M161.5,380.5h72.9l-36.8-100.6
			L161.5,380.5z"/>
	</g>
</g>
</svg>
